<?xml version="1.0" standalone="no"?><!DOCTYPE svg PUBLIC "-//W3C//DTD SVG 1.1//EN" "http://www.w3.org/Graphics/SVG/1.1/DTD/svg11.dtd"><svg class="icon" viewBox="0 0 1024 1024" version="1.1" xmlns="http://www.w3.org/2000/svg"><path d="M281.6 460.8h460.8c12.8 0 25.6-12.8 25.6-25.6s-12.8-25.6-25.6-25.6h-460.8c-12.8 0-25.6 12.8-25.6 25.6s12.8 25.6 25.6 25.6zM284.16 614.4h145.92c15.36 0 28.16-12.8 28.16-25.6 0-15.36-12.8-25.6-28.16-25.6h-145.92c-15.36 0-28.16 10.24-28.16 25.6 0 12.8 12.8 25.6 28.16 25.6zM284.16 768h145.92c15.36 0 28.16-12.8 28.16-25.6 0-15.36-12.8-25.6-28.16-25.6h-145.92c-15.36 0-28.16 10.24-28.16 25.6 0 12.8 12.8 25.6 28.16 25.6zM281.6 307.2h460.8c12.8 0 25.6-12.8 25.6-25.6s-12.8-25.6-25.6-25.6h-460.8c-12.8 0-25.6 12.8-25.6 25.6s12.8 25.6 25.6 25.6z" fill='#ff9920' /><path d="M896 51.2h-768c-12.8 0-25.6 12.8-25.6 25.6v870.4c0 12.8 12.8 25.6 25.6 25.6h384c15.36 0 25.6-10.24 25.6-25.6s-10.24-25.6-25.6-25.6h-358.4v-819.2h716.8v384c0 15.36 10.24 25.6 25.6 25.6s25.6-10.24 25.6-25.6v-409.6c0-12.8-12.8-25.6-25.6-25.6z" fill='#ff9920' /><path d="M768 614.4c84.48 0 153.6 69.12 153.6 153.6s-69.12 153.6-153.6 153.6-153.6-69.12-153.6-153.6 69.12-153.6 153.6-153.6m0-51.2c-112.64 0-204.8 92.16-204.8 204.8s92.16 204.8 204.8 204.8 204.8-92.16 204.8-204.8-92.16-204.8-204.8-204.8z" fill='#ff9920' /><path d="M778.24 675.84l20.48 43.52c2.56 2.56 5.12 5.12 7.68 5.12l46.08 5.12c7.68 0 12.8 12.8 5.12 17.92l-35.84 30.72c-2.56 2.56-2.56 5.12-2.56 10.24l10.24 46.08c2.56 7.68-7.68 15.36-15.36 10.24l-40.96-23.04c-2.56-2.56-7.68-2.56-10.24 0l-40.96 23.04c-7.68 5.12-15.36-2.56-15.36-10.24l10.24-46.08c0-2.56 0-7.68-2.56-10.24l-35.84-30.72c-7.68-5.12-2.56-15.36 5.12-17.92l46.08-5.12c2.56 0 7.68-2.56 7.68-5.12l20.48-43.52c5.12-7.68 15.36-7.68 20.48 0z" fill='#ff9920' /></svg>