<?xml version="1.0" standalone="no"?><!DOCTYPE svg PUBLIC "-//W3C//DTD SVG 1.1//EN" "http://www.w3.org/Graphics/SVG/1.1/DTD/svg11.dtd"><svg class="icon" width="32px" height="32.00px" viewBox="0 0 1024 1024" version="1.1" xmlns="http://www.w3.org/2000/svg"><path d="M945.792 206.72l-39.36 39.424-131.264-131.328 39.36-39.424c14.528-14.592 37.184-15.232 50.816-1.664l82.048 82.112C961.088 169.472 960.32 192.256 945.792 206.72L945.792 206.72zM576.448 576.128l-131.2-131.264 310.016-310.016 131.2 131.392L576.448 576.128 576.448 576.128zM558.208 594.496l-183.744 52.608 52.48-184L558.208 594.496 558.208 594.496zM233.792 189.184C188.48 189.184 160 234.88 160 280.512l0 514.24c0 45.632 29.184 73.472 74.56 73.472l521.6 0c45.312 0 76.416-30.848 76.416-76.48l0-348.8 91.2-89.024 0 459.136c0 76.032-70.464 146.88-145.92 146.88L203.648 959.936c-75.584 0-136.832-61.76-136.832-137.856l0-572.16c0-76.096 73.472-153.088 149.056-153.088l447.04 0L580.672 189.184 233.792 189.184 233.792 189.184zM233.792 189.184" fill="#3A71C7" /></svg>