<?xml version="1.0" standalone="no"?><!DOCTYPE svg PUBLIC "-//W3C//DTD SVG 1.1//EN" "http://www.w3.org/Graphics/SVG/1.1/DTD/svg11.dtd"><svg class="icon" viewBox="0 0 1024 1024" version="1.1" xmlns="http://www.w3.org/2000/svg"><path d="M992 953.6H32c-19.2 0-32-12.8-32-32v-275.2c0-19.2 12.8-32 32-32s32 12.8 32 32v236.8h889.6v-236.8c0-19.2 12.8-32 32-32s32 12.8 32 32v275.2c6.4 19.2-6.4 32-25.6 32z m-300.8-588.8L544 192v524.8c0 19.2-12.8 32-32 32s-32-12.8-32-32V192L332.8 364.8c-12.8 12.8-38.4 12.8-51.2 0-12.8-12.8-12.8-38.4 0-51.2l204.8-236.8c6.4-6.4 19.2-6.4 25.6-6.4 6.4 0 19.2 6.4 19.2 6.4l204.8 236.8c12.8 12.8 12.8 38.4 0 51.2-6.4 12.8-32 12.8-44.8 0z" fill='#515cbd'/></svg>