<?xml version="1.0" standalone="no"?><!DOCTYPE svg PUBLIC "-//W3C//DTD SVG 1.1//EN" "http://www.w3.org/Graphics/SVG/1.1/DTD/svg11.dtd"><svg class="icon" viewBox="0 0 1024 1024" version="1.1" xmlns="http://www.w3.org/2000/svg"><path d="M874.615871 557.321619c1.838999-14.87499 3.097998-29.93798 3.097998-45.320969 0-201.981862-163.731888-365.71375-365.71375-365.71375-23.044984 0-45.499969 2.383998-67.356954 6.463996l13.472991 71.865951c17.490988-3.276998 35.454976-5.187996 53.883963-5.187996 161.32089 0 292.5708 131.24991 292.5708 292.5708 0 12.303992-1.008999 24.347983-2.490998 36.258975L874.615871 557.321619z" fill="#3A71C7" /><path d="M512.000119 0c-32.258978 0-63.695956 3.338998-94.303936 9.044994l13.481991 71.883951c26.231982-4.910997 53.178964-7.785995 80.820945-7.785995 241.981835 0 438.8567 196.874865 438.8567 438.8567 0 18.454987-1.517999 36.526975-3.731997 54.392963l72.53595 9.062994c2.579998-20.829986 4.338997-41.919971 4.338997-63.454957C1023.999769 229.231843 794.767925 0 512.000119 0z" fill="#3A71C7" /><path d="M729.57097 539.195631c1.106999-8.928994 1.856999-17.963988 1.856999-27.195981 0-121.187917-98.240933-219.42885-219.42885-219.42885-13.820991 0-27.303981 1.428999-40.410972 3.874997l13.490991 71.990951c8.749994-1.633999 17.704988-2.722998 26.919982-2.722998 80.660945 0 146.2859 65.624955 146.2859 146.2859 0 6.178996-1.079999 12.070992-1.820999 18.053988L729.57097 539.195631z" fill="#3A71C7" /><path d="M344.771233 326.692777l0-0.154c14.55199-14.86299 13.202991-37.407974 0-50.880965l0-0.234L163.635357 92.241937c-13.89999-14.20799-36.174975-13.857991-50.074966 0l-63.736956 64.821956 231.056842 234.21684C280.880277 391.280733 344.771233 326.808777 344.771233 326.692777z" fill="#3A71C7" /><path d="M610.606051 760.42348l225.452846 228.503844c-37.408974 39.415973-254.947826 114.463922-592.086595-235.880839C-76.063479 420.621712-1.40453 217.518851 32.221447 174.85988l231.284842 234.09884c-32.969977 33.396977-1.117999 80.956945 35.050976 126.201914 51.384965 64.625956 110.760924 121.840917 162.145889 164.419888C538.6061 763.933478 579.181073 792.310458 610.606051 760.42348z" fill="#3A71C7" /><path d="M917.440841 856.127415c13.240991 13.584991 14.70899 36.168975 0.154 50.993965l-0.154 0.116c0.077 0.08-63.778956 64.626956-63.778956 64.626956L627.63404 742.701492l63.736956-64.741956c13.893991-13.93199 36.130975-14.16599 50.103966-0.113 0.08 0.113 175.96488 178.084878 175.96488 178.084878L917.439841 856.127415z" fill="#3A71C7" /></svg>