<?xml version="1.0" standalone="no"?><!DOCTYPE svg PUBLIC "-//W3C//DTD SVG 1.1//EN" "http://www.w3.org/Graphics/SVG/1.1/DTD/svg11.dtd"><svg class="icon" viewBox="0 0 1024 1024" version="1.1" xmlns="http://www.w3.org/2000/svg"><path d="M768 0H256C185.6 0 128 57.6 128 128v768c0 70.4 57.6 128 128 128h512c70.4 0 128-57.6 128-128V128c0-70.4-57.6-128-128-128z m-256 960c-35.2 0-64-28.8-64-64s28.8-64 64-64 64 28.8 64 64-28.8 64-64 64z m256-256c0 35.2-28.8 64-64 64H320c-35.2 0-64-28.8-64-64V192c0-35.2 28.8-64 64-64h384c35.2 0 64 28.8 64 64v512z" fill="#3A71C7" /></svg>