<?xml version="1.0" encoding="utf-8"?>
<!-- Generator: Adobe Illustrator 19.0.0, SVG Export Plug-In . SVG Version: 6.00 Build 0)  -->
<svg version="1.1" id="图层_1" xmlns="http://www.w3.org/2000/svg" xmlns:xlink="http://www.w3.org/1999/xlink" x="0px" y="0px" viewBox="-281 404.9 32 32" style="enable-background:new -281 404.9 32 32;" xml:space="preserve">
<style type="text/css">
	.st0{fill:#3A71C7;}
</style>
<path class="st0" d="M-254.8,408.7h-20.4c-2.1,0-3.8,1.7-3.8,3.8v12.1c0,2.1,1.7,3.8,3.8,3.8h9.5l8.3,5.7v-5.7h2.5
	c2.1,0,3.8-1.7,3.8-3.8v-12.1C-251,410.4-252.7,408.7-254.8,408.7z M-264.4,424c-0.2,0.2-0.6,0.3-0.9,0.3c-0.3,0-0.6-0.1-0.9-0.4
	c-0.2-0.2-0.4-0.5-0.4-0.9c0-0.4,0.1-0.6,0.4-0.9c0.2-0.2,0.5-0.3,0.9-0.3c0.4,0,0.7,0.1,0.9,0.3c0.2,0.2,0.4,0.5,0.4,0.9
	C-264,423.4-264.1,423.7-264.4,424z M-262.1,417.8c-0.2,0.2-0.6,0.6-1.4,1.3c-0.3,0.2-0.5,0.5-0.6,0.8c-0.2,0.3-0.2,0.7-0.2,1.1v0.2
	h-1.8v-0.2c0-0.6,0.1-1.1,0.3-1.6c0.2-0.4,0.8-1.1,1.9-2l0.2-0.2c0.3-0.4,0.4-0.7,0.4-1.1c0-0.5-0.1-0.9-0.4-1.2
	c-0.3-0.3-0.7-0.4-1.3-0.4c-0.7,0-1.2,0.2-1.5,0.6c-0.3,0.4-0.4,0.9-0.4,1.6h-1.8c0-1.2,0.3-2.1,1-2.8c0.7-0.7,1.6-1,2.8-1
	c1.1,0,1.9,0.3,2.5,0.8c0.6,0.6,1,1.3,1,2.3C-261.5,416.6-261.7,417.3-262.1,417.8L-262.1,417.8z"/>
</svg>
