<?xml version="1.0" standalone="no"?><!DOCTYPE svg PUBLIC "-//W3C//DTD SVG 1.1//EN" "http://www.w3.org/Graphics/SVG/1.1/DTD/svg11.dtd"><svg class="icon" viewBox="0 0 1024 1024" version="1.1" xmlns="http://www.w3.org/2000/svg"><path d="M515.2 793.6h16c51.2-6.4 92.8-38.4 108.8-83.2 0-3.2 0-6.4-3.2-9.6-3.2 0-6.4 0-9.6 3.2 0 0-19.2 28.8-99.2 38.4-9.6 0-22.4 3.2-35.2 3.2-54.4 0-80-19.2-80-19.2-3.2-3.2-6.4-3.2-9.6 0-3.2 3.2-3.2 6.4 0 9.6 25.6 35.2 67.2 57.6 112 57.6z m422.4-444.8C889.6 166.4 716.8 32 505.6 32 288 32 108.8 172.8 67.2 361.6 32 368 0 400 0 435.2v150.4c0 41.6 38.4 76.8 83.2 76.8 28.8 0 48-9.6 64-28.8 38.4 86.4 112 160 204.8 195.2 0 0 3.2-3.2 3.2-6.4s3.2-3.2 3.2-3.2h3.2c-19.2-16-102.4-89.6-118.4-195.2-6.4-48 32-92.8 73.6-99.2 70.4-12.8 144-25.6 214.4-38.4 44.8-6.4 80-28.8 96-67.2 3.2-9.6 9.6-25.6 12.8-51.2 0-3.2 3.2-6.4 9.6-6.4 3.2 0 6.4 0 6.4 3.2h3.2c28.8 38.4 86.4 121.6 92.8 208 9.6 99.2 3.2 166.4-80 236.8v6.4c0 3.2 0 3.2 3.2 6.4h3.2s3.2 0 3.2-3.2C768 777.6 832 707.2 864 620.8c12.8 16 32 28.8 54.4 32C883.2 800 736 892.8 560 905.6c-9.6-25.6-38.4-41.6-67.2-41.6-41.6 0-70.4 28.8-70.4 64s35.2 64 70.4 64 60.8-19.2 67.2-44.8c208-16 371.2-128 406.4-300.8 38.4-9.6 57.6-35.2 57.6-67.2V428.8c0-48-38.4-80-86.4-80zM864 390.4c-54.4-131.2-195.2-227.2-358.4-227.2s-304 92.8-358.4 227.2l-9.6-9.6c32-160 185.6-281.6 364.8-281.6 185.6 0 336 121.6 364.8 281.6 0 3.2-3.2 6.4-3.2 9.6zM352 835.2z" fill="#3A71C7" /></svg>