<?xml version="1.0" standalone="no"?><!DOCTYPE svg PUBLIC "-//W3C//DTD SVG 1.1//EN" "http://www.w3.org/Graphics/SVG/1.1/DTD/svg11.dtd"><svg class="icon" viewBox="0 0 1024 1024" version="1.1" xmlns="http://www.w3.org/2000/svg"><path d="M855.733157 63.83998 168.264796 63.83998c-57.672514 0-104.425328 46.752814-104.425328 104.426351l0 687.46836c0 57.672514 46.752814 104.425328 104.425328 104.425328L855.733157 960.16002c57.672514 0 104.425328-46.752814 104.425328-104.425328L960.158485 168.266331C960.158485 110.592794 913.406694 63.83998 855.733157 63.83998zM596.321966 731.750913l-62.956867 0-14.68956-266.219247c-1.400906-22.784936-2.499937-50.764174-3.298116-83.942831-12.193717 27.78174-22.38687 49.367361-30.579459 64.75584L332.501348 731.750913l-60.559261 0L244.960573 292.249087l59.659775 0 10.193153 217.352283c0.599657 10.393721 1.598404 38.57455 2.998287 84.542488 0.399089 12.792351 0.599657 21.786189 0.599657 26.981515 0 3.400446-0.103354 13.293771-0.299829 29.679973 24.382317-49.962925 41.971927-85.142146 52.764738-105.528452L504.584612 292.249087l60.559261 0 14.68956 256.92558c1.597381 29.380144 2.698458 64.75584 3.298116 106.128109 3.597945-10.193153 9.991562-25.38004 19.186991-45.568848 14.588253-32.574906 25.381064-55.861262 32.378431-69.852928L760.011049 292.249087l59.959603 0L596.321966 731.750913z" fill='#6666ff'/></svg>