<?xml version="1.0" standalone="no"?><!DOCTYPE svg PUBLIC "-//W3C//DTD SVG 1.1//EN" "http://www.w3.org/Graphics/SVG/1.1/DTD/svg11.dtd"><svg class="icon"  viewBox="0 0 1024 1024" version="1.1" xmlns="http://www.w3.org/2000/svg"><path d="M855.733157 63.83998 168.264796 63.83998c-57.672514 0-104.425328 46.752814-104.425328 104.426351l0 687.46836c0 57.672514 46.752814 104.425328 104.425328 104.425328L855.733157 960.16002c57.672514 0 104.425328-46.752814 104.425328-104.425328L960.158485 168.266331C960.158485 110.592794 913.406694 63.83998 855.733157 63.83998zM665.702126 731.750913l-63.856353 0-71.352071-128.613216c-6.999414-12.591783-15.093766-28.780487-24.283056-48.567135-10.79281 14.591323-23.984251 30.082132-39.573297 46.468334L344.019683 731.750913l-77.94728 0 209.857589-222.149543L351.514377 292.249087l64.75584 0 56.661488 99.532901c14.989389 26.185382 23.581068 41.4746 25.783223 45.868677 5.194302 9.794064 10.891048 21.48636 17.08819 35.075867 14.787798-19.983123 37.670971-46.267766 68.653613-78.846766l96.534614-101.630678 76.747965 0L545.184285 519.194866 665.702126 731.750913z" fill='#3bab78'/></svg>