<?xml version="1.0" standalone="no"?><!DOCTYPE svg PUBLIC "-//W3C//DTD SVG 1.1//EN" "http://www.w3.org/Graphics/SVG/1.1/DTD/svg11.dtd">
<svg class="icon"  viewBox="0 0 1024 1024" version="1.1" xmlns="http://www.w3.org/2000/svg">

<path d="M493.638305 493.510904c0 0-8.708336 33.013905-27.351951 66.940598-18.642592 33.926694-35.184337 53.195549-35.184337 53.195549s49.792033-12.325723 69.113077-16.335037c22.199605-4.608971 51.880601-7.261381 63.139016-7.856945 0 0-23.911596-26.78197-33.695427-39.818891C519.825734 536.533766 493.638305 493.510904 493.638305 493.510904z"  fill='#f85555'/>

<path d="M259.370771 760.667499c11.728112 6.701632 36.440957-6.284123 51.938929-24.293289 12.558014-14.594393 39.372729-54.870702 39.372729-54.870702s-49.845245 14.659885-72.463382 36.021401C255.601934 738.886427 252.384659 756.674559 259.370771 760.667499z"  fill='#f85555'/>

<path d="M507.695462 340.689333c0.653893-17.591657 11.651364-69.809949-15.715937-77.070306 0 0-29.040407 1.116427-26.960025 46.935985 1.428535 31.480992 23.609721 92.684936 23.609721 92.684936S507.043616 358.280989 507.695462 340.689333z"  fill='#f85555'/>

<path d="M696.941618 619.931175c-26.386974-2.512217-52.937676-3.699252-52.937676-3.699252s52.075029 49.65184 70.808696 64.017012c16.754592 12.845563 45.796022 8.93551 51.939953-8.93551C777.617032 639.70759 723.328591 622.443391 696.941618 619.931175z"  fill='#f85555'/>

<path d="M855.733157 63.83998 168.26582 63.83998c-57.672514 0-104.425328 46.752814-104.425328 104.426351l0 687.46836c0 57.672514 46.752814 104.425328 104.425328 104.425328L855.733157 960.16002c57.672514 0 104.425328-46.752814 104.425328-104.425328L960.158485 168.266331C960.158485 110.592794 913.406694 63.83998 855.733157 63.83998zM724.307895 727.158315c-82.09781-18.429745-132.851751-106.275465-132.851751-106.275465s-30.92329 0.723477-82.024132 8.68173c-48.250934 7.513114-104.430444 30.461779-104.430444 30.461779S345.655949 774.070764 288.69054 792.501532c-56.965409 18.429745-101.265358-30.508851-50.262754-88.799442 43.979654-50.261731 139.222855-69.578682 139.222855-69.578682s38.373982-46.864354 58.478879-86.655615c20.10592-39.793308 38.535665-91.732238 38.535665-91.732238s-38.535665-88.798419-41.888016-139.062196c-3.349281-50.262754 26.807552-85.448114 56.965409-88.798419 38.301328-4.25593 82.815147 31.833009 17.951861 217.808678 0 0 18.909675 43.561122 45.716204 73.720002 26.807552 30.15888 58.08286 61.434188 58.08286 61.434188s95.427396-10.398838 158.821215 21.977547C839.912843 638.361943 806.404682 745.588059 724.307895 727.158315z" fill='#f85555'/></svg>