<?xml version="1.0" standalone="no"?><!DOCTYPE svg PUBLIC "-//W3C//DTD SVG 1.1//EN" "http://www.w3.org/Graphics/SVG/1.1/DTD/svg11.dtd"><svg class="icon" width="32px" height="28.08px" viewBox="0 0 1167 1024" version="1.1" xmlns="http://www.w3.org/2000/svg"><path d="M912.814063 0l-736.70797 0c-42.130501 0-76.600639 34.470138-76.600639 76.600639l0 0c0 42.130501 34.470138 76.600639 76.600639 76.600639l736.70797 0c42.130501 0 76.602135-34.470138 76.602135-76.600639l0 0C989.416198 34.470138 954.94606 0 912.814063 0z" fill="#3A71C7" /><path d="M945.200858 521.449077 605.397503 237.182607c-13.449755-17.121405-34.310111-28.181222-57.642661-28.181222l-6.589527 0c-21.650022 0-41.176321 9.51937-54.626076 24.570891L143.566749 522.027867c-32.243219 27.117865-36.436826 75.685344-9.318962 107.928563l0 0c27.117865 32.243219 75.685344 36.436826 107.928563 9.318962l225.683089-189.810096 0 501.22883c0 40.317858 32.988018 73.305875 73.305875 73.305875l6.589527 0c40.317858 0 73.305875-32.988018 73.305875-73.305875L621.060717 450.029129l225.837134 188.926208c32.315007 27.032617 80.870521 22.711885 107.904633-9.603122l0 0C981.836596 597.038704 977.514369 548.481694 945.200858 521.449077z" fill="#3A71C7" /></svg>