<?xml version="1.0" standalone="no"?><!DOCTYPE svg PUBLIC "-//W3C//DTD SVG 1.1//EN" "http://www.w3.org/Graphics/SVG/1.1/DTD/svg11.dtd"><svg class="icon" width="200px" height="200.00px" viewBox="0 0 1024 1024" version="1.1" xmlns="http://www.w3.org/2000/svg"><path d="M544.8 771.377h-334.549c-15.977 0-29.413-11.981-31.237-27.853a202.316 202.316 0 0 1-1.327-23.012c0-65.077 31.564-125.084 83.004-162.156-15.126-22.69-23.377-49.514-23.377-77.636 0-77.313 62.899-140.212 140.212-140.212S517.737 403.407 517.737 480.72c0 28.122-8.251 54.946-23.377 77.636 51.44 37.073 83.004 97.08 83.004 162.156 0 7.609-0.447 15.352-1.327 23.014-1.825 15.871-15.261 27.851-31.237 27.851z" fill="#CCECFF" /><path d="M836.437 716.43H693.379c-19.938 0-36.046 16.108-36.046 36.046s16.108 36.046 36.046 36.046h143.057c19.938 0 36.046-16.108 36.046-36.046 0.001-19.825-16.107-36.046-36.045-36.046zM836.437 618.209H693.379c-19.938 0-36.046 16.108-36.046 36.046s16.108 36.046 36.046 36.046h143.057c19.938 0 36.046-16.108 36.046-36.046 0.001-19.825-16.107-36.046-36.045-36.046zM825.347 597.369c-9.235 0-18.451-3.534-25.461-10.544l-78.748-78.749c-14.059-14.059-14.059-36.853 0-50.912 14.059-14.059 36.854-14.059 50.912 0l54.652 54.653L963.978 388.84c14.81-13.267 37.567-12.018 50.836 2.793 13.266 14.809 12.016 37.569-2.794 50.835L849.364 588.183a35.898 35.898 0 0 1-24.017 9.186z" fill="#108EE9" /><path d="M988.012 120.186l-952-0.299h-0.011a36.004 36.004 0 0 0-36 36v752c0 19.882 16.118 36 36 36h952c19.882 0 36-16.118 36-36V591.255h-0.036c-0.76-19.212-16.567-34.557-35.965-34.557s-35.205 15.344-35.964 34.557H952v280.632h-880v-679.988l880 0.276v88.876h0.058c1.038 18.952 16.731 34.001 35.942 34.001s34.904-15.049 35.942-34.001H1024v-124.865c0-19.878-16.11-35.994-35.988-36z" fill="#108EE9" /><path d="M565.228 798.404h-383.042c-18.292 0-33.677-13.718-35.765-31.891a231.816 231.816 0 0 1-1.52-26.348c0-74.51 36.139-143.215 95.035-185.661-17.319-25.979-26.766-56.691-26.766-88.889 0-88.52 72.016-160.536 160.536-160.536S534.242 377.096 534.242 465.616c0 32.198-9.447 62.911-26.766 88.889 58.896 42.447 95.035 111.151 95.035 185.661 0 8.712-0.512 17.577-1.52 26.35-2.088 18.172-17.471 31.888-35.763 31.888z m-347.724-72H529.909c-4.987-56.79-40.577-106.879-93.507-130.002a35.999 35.999 0 0 1-7.897-61.244C449.945 518.23 462.242 492.884 462.242 465.616c0-48.819-39.717-88.536-88.536-88.536s-88.536 39.717-88.536 88.536c0 27.267 12.297 52.615 33.737 69.542a35.998 35.998 0 0 1-7.897 61.244c-52.929 23.123-88.519 73.212-93.506 130.002z" fill="#108EE9" /></svg>