<!-- Generator: Adobe Illustrator 21.0.0, SVG Export Plug-In  -->
<svg version="1.1"
	 xmlns="http://www.w3.org/2000/svg" xmlns:xlink="http://www.w3.org/1999/xlink" xmlns:a="http://ns.adobe.com/AdobeSVGViewerExtensions/3.0/"
	 x="0px" y="0px" width="57.5px" height="67.8px" viewBox="0 0 57.5 67.8" style="enable-background:new 0 0 57.5 67.8;"
	 xml:space="preserve">
<style type="text/css">
	.st0{clip-path:url(#SVGID_2_);fill:#EBF9FF;}
	.st1{fill:#4A89DC;}
	.st2{clip-path:url(#SVGID_4_);fill:#EBF9FF;}
</style>
<defs>
</defs>
<g>
	<g>
		<defs>
			<rect id="SVGID_1_" width="57.5" height="67.8"/>
		</defs>
		<clipPath id="SVGID_2_">
			<use xlink:href="#SVGID_1_"  style="overflow:visible;"/>
		</clipPath>
		<path class="st0" d="M31.2,10.7H15.4c-2.6,0-4.7,2.1-4.7,4.7V63c0,2.6,2.1,4.7,4.7,4.7h37.4c2.6,0,4.7-2.1,4.7-4.7V37
			c0-2.6-1.5-6.2-3.3-7.9l-15-15C37.4,12.2,33.7,10.7,31.2,10.7"/>
	</g>
	<path class="st1" d="M44.4,61.7H7c-3.8,0-7-3.2-7-7V7c0-3.8,3.2-7,7-7h15.8c3.2,0,7.4,1.7,9.6,4l15,15c2.2,2.2,4,6.4,4,9.6v26
		C51.4,58.5,48.3,61.7,44.4,61.7L44.4,61.7z M4.7,4.6v52.3h42V28.6c0-2-1.2-5-2.6-6.4l-14.9-15c-1.4-1.4-4.4-2.6-6.4-2.6H4.7z
		 M4.7,4.6"/>
	<path class="st1" d="M49,24.9H26.5V2.3h1.9V23H49V24.9z M14.5,32.5h22.6v1.9H14.5V32.5z M14.5,39.9h22.6v1.9H14.5V39.9z M14.5,47.2
		h22.6v1.9H14.5V47.2z M14.5,47.2"/>
</g>
</svg>
