<?xml version="1.0" encoding="utf-8"?>
<!-- Generator: Adobe Illustrator 21.0.0, SVG Export Plug-In . SVG Version: 6.00 Build 0)  -->
<svg version="1.1" id="图层_1" xmlns="http://www.w3.org/2000/svg" xmlns:xlink="http://www.w3.org/1999/xlink" x="0px" y="0px"
	 viewBox="0 0 200 200" style="enable-background:new 0 0 200 200;" xml:space="preserve">
<style type="text/css">
	.st0{fill:#BAD4FF;}
	.st1{fill:#4E8CEE;}
	.st2{fill:#FFFFFF;}
</style>
<path class="st0" d="M51,182.3c-7.3,0-13.3-6-13.3-13.3V51.5c0-7.3,6-13.3,13.3-13.3h97.8c7.3,0,13.3,6,13.3,13.3V169
	c0,7.3-6,13.3-13.3,13.3H51z"/>
<path class="st1" d="M148.8,41.9c5.3,0,9.7,4.3,9.7,9.7V169c0,5.3-4.3,9.7-9.7,9.7H51c-5.3,0-9.7-4.3-9.7-9.7V51.5
	c0-5.3,4.3-9.7,9.7-9.7H148.8 M148.8,34.6H51c-9.3,0-16.9,7.6-16.9,16.9V169c0,9.3,7.6,16.9,16.9,16.9h97.8
	c9.3,0,16.9-7.6,16.9-16.9V51.5C165.7,42.2,158.2,34.6,148.8,34.6L148.8,34.6z"/>
<path class="st2" d="M60.4,168.2c-4.7,0-8.5-3.8-8.5-8.5V61.4c0-4.7,3.8-8.5,8.5-8.5h79c4.7,0,8.5,3.8,8.5,8.5v98.3
	c0,4.7-3.8,8.5-8.5,8.5H60.4z"/>
<path class="st1" d="M139.4,56.1c2.9,0,5.3,2.4,5.3,5.3v98.3c0,2.9-2.4,5.3-5.3,5.3h-79c-2.9,0-5.3-2.4-5.3-5.3V61.4
	c0-2.9,2.4-5.3,5.3-5.3L139.4,56.1 M139.4,49.7h-79c-6.5,0-11.7,5.3-11.7,11.7v98.3c0,6.5,5.3,11.7,11.7,11.7h79
	c6.5,0,11.7-5.3,11.7-11.7V61.4C151.2,54.9,145.9,49.7,139.4,49.7z"/>
<path class="st2" d="M83.4,52.5c-5.2,0-9.4-4.5-9.4-10v-5.2c0-5.5,4.2-10,9.4-10h7.3v-2.6c0-5.4,4.1-9.8,9.2-9.8h0.3
	c4.9,0.1,9,4.7,9,10.1v2.3h8.1c5.2,0,9.4,4.5,9.4,10v5.2c0,5.5-4.2,10-9.4,10C117.3,52.5,83.4,52.5,83.4,52.5z"/>
<path class="st1" d="M99.9,18.5h0.1c3.1,0.1,5.4,3.1,5.4,6.5v3.9c0,1.1,0.8,2,1.8,2h10c3.1,0,5.7,2.9,5.7,6.4v5.2
	c0,3.5-2.6,6.4-5.7,6.4H83.4c-3.1,0-5.7-2.9-5.7-6.4v-5.2c0-3.5,2.6-6.4,5.7-6.4h9.2c1,0,1.8-0.9,1.8-2v-4.2
	C94.4,21.3,96.9,18.5,99.9,18.5 M99.9,11.3c-3.5,0-6.9,1.5-9.3,4.2c-2,2.3-3.2,5.1-3.5,8.2h-3.8c-7.2,0-13,6.1-13,13.6v5.2
	c0,7.5,5.8,13.6,13,13.6h33.9c7.2,0,13-6.1,13-13.6v-5.2c0-7.5-5.8-13.6-13-13.6h-4.6c-0.6-6.8-6-12.2-12.4-12.4
	C100.3,11.3,99.9,11.3,99.9,11.3z"/>
<path class="st0" d="M70.6,70.8c0,2,1.6,3.6,3.6,3.6s3.6-1.6,3.6-3.6l0,0c0-2-1.6-3.6-3.6-3.6S70.6,68.8,70.6,70.8z"/>
<path class="st0" d="M112.1,74.5H86.8c-1.9,0-3.5-1.6-3.5-3.5v-0.2c0-1.9,1.6-3.5,3.5-3.5h25.3c1.9,0,3.5,1.6,3.5,3.5v0.2
	C115.6,72.9,114,74.5,112.1,74.5z"/>
<path class="st0" d="M70.6,86.8c0,2,1.6,3.6,3.6,3.6s3.6-1.6,3.6-3.6l0,0c0-2-1.6-3.6-3.6-3.6S70.6,84.8,70.6,86.8z"/>
<path class="st0" d="M125.7,90.4h-39c-1.9,0-3.5-1.6-3.5-3.5s1.6-3.5,3.5-3.5h39c1.9,0,3.5,1.6,3.5,3.5S127.6,90.4,125.7,90.4z"/>
<path class="st1" d="M128.5,129.6c0,15.2-12.5,27.7-27.7,27.7s-27.7-12.5-27.7-27.7s12.5-27.7,27.7-27.7S128.5,114.4,128.5,129.6z
	 M101.2,134.1c1.4-1.6,2.7-3.6,4.1-5.2l-3.8-2.5c-1.1,1.9-2.5,3.8-3.8,5.7l-1.6-0.8v-1.6c1.4-1.9,2.7-3.6,3.8-5.2v-4.4h-6l3.3-1.9
	c-1.4-1.9-2.7-3.6-4.4-5.7l-4.4,2.5c1.4,1.9,2.7,3.6,3.8,5.2h-6.8v4.4h8.5c-2.5,3.3-5.5,6.3-9,9.3c0.5,1.6,1.1,3.6,1.6,5.7
	c1.6-1.4,3-2.7,4.4-4.1v14.2H96v-13.1c1.6,1.4,3.6,2.7,5.5,4.1l3-3.8L101.2,134.1L101.2,134.1z M122.8,131.9
	c-2.7-2.7-5.5-5.5-8.7-8.2l-1.9,1.6v-12.8h-5.5v36.9h5.5v-20.5c2.2,2.5,4.6,4.6,6.6,7.1L122.8,131.9L122.8,131.9z"/>
</svg>
