<?xml version="1.0" encoding="utf-8"?>
<!-- Generator: Adobe Illustrator 21.0.0, SVG Export Plug-In . SVG Version: 6.00 Build 0)  -->
<svg version="1.1" id="图层_1" xmlns="http://www.w3.org/2000/svg" xmlns:xlink="http://www.w3.org/1999/xlink" x="0px" y="0px"
	 viewBox="0 0 128 128" style="enable-background:new 0 0 128 128;" xml:space="preserve">
<style type="text/css">
	.st0{fill:#A6C5F6;}
	.st1{fill:#4E8CEE;}
</style>
<path class="st0" d="M119.7,88.1c0,2.3-1.9,4.1-4.2,4.1H69.9v20.7c0,3.8-3.1,6.9-7,6.9c-3.8,0-7-3.1-7-6.9V92.2H12.3
	c-2.3,0-4.2-1.8-4.2-4.1c0-2.3,1.9-4.1,4.2-4.1h103.2C117.8,84,119.7,85.8,119.7,88.1z"/>
<path class="st1" d="M80.6,32.6H77v22h3.7c6.9,0.3,10.3-3.4,10.1-11.1C90.8,36.1,87.5,32.5,80.6,32.6z M42.1,47.2h9.4l-4.8-13
	L42.1,47.2z M116.3,20.2v57.7h-104V20.2c0-6,5-11,11.2-11h81.7C111.2,9.2,116.3,14.2,116.3,20.2z M61.6,58L50.3,29.1h-6.8L32,58h6
	l2.7-7.2h12.1l2.9,7.2H61.6z M96.4,43.4c0.1-9.6-5.1-14.3-15.7-14.2h-9.5V58h9.8C91.8,58.4,96.9,53.6,96.4,43.4z"/>
</svg>
