<?xml version="1.0" encoding="utf-8"?>
<!-- Generator: Adobe Illustrator 21.0.0, SVG Export Plug-In . SVG Version: 6.00 Build 0)  -->
<svg version="1.1" id="图层_1" xmlns="http://www.w3.org/2000/svg" xmlns:xlink="http://www.w3.org/1999/xlink" x="0px" y="0px"
	 viewBox="0 0 128 128" style="enable-background:new 0 0 128 128;" xml:space="preserve">
<style type="text/css">
	.st0{fill:#4E8CEE;}
	.st1{fill:#A6C5F6;}
</style>
<path class="st0" d="M82.8,58H74v29.6h8.4c4.4,0,8-0.8,10.4-3.6c2.4-3.2,3.6-5.6,3.6-11.2s-1.6-8.8-3.6-11.2
	C90,58.8,86.8,58,82.8,58z M36.8,75.6h12.4l-6-18C43.2,57.6,36.8,75.6,36.8,75.6z"/>
<path class="st0" d="M110.8,25.6H17.2C10,25.6,4.4,31.2,4.4,38v70.8c0,6.8,6,12.4,12.8,12.4h93.6c7.2,0,12.8-5.6,12.8-12.4V38
	C123.6,31.2,118,25.6,110.8,25.6z M58.4,93.2h-3.2l-4.4-12h-16l-4.4,12H24L40,52h6.4l15.2,41.2H58.4z M84,93.2H67.2V52h17.2
	c5.2,0,9.6,2,12.8,5.6c3.2,3.6,5.2,8.8,5.2,15.2c0,6.4-2,11.2-5.2,15.2C94,91.2,89.6,93.2,84,93.2z"/>
<path class="st1" d="M25.2,94.4 M108.4,21.6h-88c-1.2,0-2.4-1.2-2.4-2.4s0.8-2,2.4-2h88c1.2,0,2.4,1.2,2.4,2.4
	S109.6,21.6,108.4,21.6z M32.4,12.4c-1.2,0-2.4-1.2-2.4-2.4s1.2-2.4,2.4-2.4h62.4c1.2,0,2.4,1.2,2.4,2.4s-1.2,2.4-2.4,2.4
	C94.8,12.4,32.4,12.4,32.4,12.4z"/>
</svg>
