<?xml version="1.0" encoding="utf-8"?>
<!-- Generator: Adobe Illustrator 21.0.0, SVG Export Plug-In . SVG Version: 6.00 Build 0)  -->
<svg version="1.1" id="图层_1" xmlns="http://www.w3.org/2000/svg" xmlns:xlink="http://www.w3.org/1999/xlink" x="0px" y="0px"
	 viewBox="0 0 128 128" style="enable-background:new 0 0 128 128;" xml:space="preserve">
<style type="text/css">
	.st0{fill:#4E8CEE;}
	.st1{fill:#A6C5F6;}
</style>
<path class="st0" d="M32.2,57.1h83.1c0,22.9-18.6,33.3-41.5,33.3C50.8,90.4,32.2,80,32.2,57.1z M41,92.4c-5.6,1.8-8.6,7.8-6.8,13.4
	c1.8,5.6,7.8,8.6,13.4,6.8c5.6-1.8,8.6-7.8,6.8-13.4C52.6,93.6,46.6,90.6,41,92.4z M99.4,92.4c-5.6,1.8-8.6,7.8-6.8,13.4
	c1.8,5.6,7.8,8.6,13.4,6.8c5.6-1.8,8.6-7.8,6.8-13.4C110.9,93.6,104.9,90.6,99.4,92.4z M15.1,31.6c-0.1,0-0.1,0-0.2,0
	c-1.3,0-2.4,1.1-2.4,2.5v2.8c0,1.4,1.1,2.5,2.5,2.5c0,0,0,0,0,0c8.5,0,15.6,6.1,17.2,14.1h7.8C38.4,41.1,27.9,31.6,15.1,31.6z"/>
<path class="st1" d="M115.3,54c0-19.8-16.1-35.9-35.9-35.9L79.5,54H115.3z"/>
</svg>
