<?xml version="1.0" standalone="no"?><!DOCTYPE svg PUBLIC "-//W3C//DTD SVG 1.1//EN" "http://www.w3.org/Graphics/SVG/1.1/DTD/svg11.dtd"><svg class="icon" width="32px" height="32.00px" viewBox="0 0 1024 1024" version="1.1" xmlns="http://www.w3.org/2000/svg"><path d="M516.66772 807.860794c5.004403 0 10.0962-0.308029 15.22095-0.916925 49.158625-5.899837 90.900188-40.260157 106.307388-87.609289 1.163348-3.541622-0.51577-7.335397-3.906959-8.892736-3.353939-1.561637-7.41133-0.210606-9.306785 2.964245-0.179087 0.303731-19.709583 31.850239-95.745563 42.118363-11.381328 1.52582-22.457491 2.328129-32.956279 2.328129-53.270459-0.034385-77.008779-20.11217-77.226549-20.298421-2.680572-2.384004-6.772348-2.444177-9.520257-0.121779-2.77513 2.320966-3.414112 6.356867-1.521522 9.445757 23.191031 37.596778 64.805085 60.982655 108.655576 60.982656" fill="#ffffff" /><path d="M925.50438 336.633139c-0.671934 0-1.282262 0.123212-1.918378 0.123212C879.033491 143.87981 708.803557 0 504.704718 0 294.99258 0 120.855688 151.824103 82.25889 352.683619 44.730881 359.437343 16.167245 392.422276 16.167245 432.312798v159.652347c0 44.744492 35.883275 81.033219 80.189362 81.033219 24.991928 0 47.051131-11.801107 61.724791-29.928994 35.457764 93.781338 107.64266 169.396105 198.99558 209.292357 0.21777-0.475655 1.947032-3.838189 4.028738-6.520194 1.438426-1.856772 3.048775-3.378294 4.432758-3.378294 1.431262 0 2.747909 0.520068 3.872574 1.313781-21.142278-15.742451-97.513508-96.656756-114.055402-209.571733-7.258032-49.697318 29.967678-98.486308 73.321022-106.55811 69.600315-12.958725 138.836725-27.722645 208.43704-40.436379 44.243049-8.07037 74.477208-32.34022 92.967567-72.750811 4.332469-9.445757 10.589047-28.546444 13.4616-56.091435 0.759328-4.096075 4.118998-7.239407 8.422813-7.239407 2.87112 0 5.311 1.465647 6.928512 3.576007l1.919811-1.192002c27.430375 39.827483 81.832663 128.012715 89.643715 220.997474 8.971535 106.311687 3.967132 179.124103-77.405636 253.617071a6.120472 6.120472 0 0 1-0.336683 0.308029 6.6563 6.6563 0 0 0-1.80233 4.554537c0 2.290879 1.220656 4.249373 2.988602 5.439942 0.671934 0.273645 1.343868 0.641847 2.015801 0.91979 0.548722 0.123212 1.06879 0.302299 1.617513 0.302299 0.55302 0 1.040136-0.179087 1.527252-0.302299 1.15905-0.610328 2.253629-1.315214 3.384025-1.926974 82.292558-45.336195 145.422823-121.04552 174.595355-212.106171 11.809703 17.541915 30.29863 30.169688 51.776158 34.573791-34.45058 156.680939-174.192767 254.746034-347.322475 269.628868-10.375576-25.73693-35.914794-44.013818-65.911125-44.013817-39.174175 0-70.937019 31.025006-70.937019 69.265063 0 38.240058 31.758546 69.229247 70.937019 69.229247 31.58519 0 58.037035-20.292689 67.220608-48.172931 200.405352-16.28974 361.057721-135.409719 394.594241-320.493832 29.626696-12.382781 50.433723-41.450727 50.433723-75.378372V418.407062c-0.002865-45.151377-36.863238-81.773922-82.328375-81.773923m-73.931351 46.404986C799.305456 241.447761 663.859921 140.302371 504.525631 140.302371c-158.669519 0-293.626506 100.288638-346.382627 240.962077-2.624697-3.212102-5.703558-5.96001-8.725112-8.740871C179.283848 201.100209 326.818463 70.765095 504.703285 70.765095c177.033801 0 324.109954 129.054284 354.954441 299.285651-3.047342 4.094642-5.856856 8.369803-8.084697 12.987379" fill="#ffffff" /><path d="M357.087007 852.36316h-0.005731c-0.03725 0.071635-0.03725 0.083096 0.005731 0" fill="#ffffff" /></svg>