<?xml version="1.0" standalone="no"?><!DOCTYPE svg PUBLIC "-//W3C//DTD SVG 1.1//EN" "http://www.w3.org/Graphics/SVG/1.1/DTD/svg11.dtd"><svg class="icon" width="32px" height="27.75px" viewBox="0 0 1181 1024" version="1.1" xmlns="http://www.w3.org/2000/svg"><path d="M1172.536839 886.50414L672.361347 41.364998a101.019897 101.019897 0 0 0-163.049834 0L9.49302 885.520141A94.520904 94.520904 0 0 0 0.00003 926.873099a98.4599 98.4599 0 0 0 99.562899 97.119901h982.391002a98.4599 98.4599 0 0 0 99.562899-97.119901 94.796904 94.796904 0 0 0-8.979991-40.368959zM650.661369 243.050793l-18.077981 445.037548h-83.099916L531.40649 243.050793h119.214879z m-61.439937 673.464316a75.498923 75.498923 0 1 1 72.269926-75.892923 73.844925 73.844925 0 0 1-72.269926 75.892923z" fill="#ffffff" /></svg>