<?xml version="1.0" encoding="utf-8"?>
<!-- Generator: Adobe Illustrator 21.0.0, SVG Export Plug-In . SVG Version: 6.00 Build 0)  -->
<svg version="1.1" id="图层_1" xmlns="http://www.w3.org/2000/svg" xmlns:xlink="http://www.w3.org/1999/xlink" x="0px" y="0px"
	 viewBox="0 0 1024 1024" style="enable-background:new 0 0 1024 1024;" xml:space="preserve">
<style type="text/css">
	.st0{fill:#F4F4F4;}
	.st1{fill:#CCCCCC;}
	.st2{opacity:0.5;fill:#ADADAD;}
	.st3{font-family:'MicrosoftYaHei';}
	.st4{font-size:113.9947px;}
</style>
<path d="M156.1,1066.5"/>
<path d="M-404,984.9"/>
<path class="st0" d="M403,512.3L256.8,645.8l-2.3,85.1l140.4,18.4l204.8-13.8c0,0,28.8-49.5,36.8-52.9s94.3-89.7,94.3-89.7
	l-2.3-29.9l-16.1-16.9L556,502c0,0-113.9-2.3-117.4-2.3C435.2,499.7,403,512.3,403,512.3z"/>
<g>
	<path class="st0" d="M340.7,328.1c0,88.7,71.9,160.7,160.6,160.7c88.7,0,160.7-71.9,160.7-160.6c0,0,0-0.1,0-0.1
		c0-88.7-71.9-160.6-160.6-160.6S340.7,239.4,340.7,328.1z"/>
	<path class="st1" d="M501.4,511.7c-101,0-183.6-82.6-183.6-183.6s82.6-183.6,183.6-183.6S685,227.1,685,328.1
		S602.3,511.7,501.4,511.7z M501.4,465.8c75.7,0,137.7-62,137.7-137.7s-62-137.7-137.7-137.7s-137.7,62-137.7,137.7
		S425.6,465.8,501.4,465.8z"/>
	<path class="st1" d="M712.5,546.1l-32.1,33.3c-44.7-42.5-106.7-67.7-173.3-67.7c-130.8,0-235.2,108.5-235.2,222.1H226
		c0-140,126.2-268,281.1-268C586.3,465.8,659.7,495.6,712.5,546.1z"/>
</g>
<g>
	<path class="st0" d="M675.3,745.6l-86.3,13.5l13.9-85.9l149.6-149.6l72.4,72.4L675.3,745.6z"/>
	<path class="st1" d="M616,733.6l48.7-7.5l128.6-128.6l-40.8-40.8L623.9,685.3C623.9,685.3,616,733.6,616,733.6z M675.3,747
		l-86.3,13.5l13.5-86.3l149.6-149.6l72.8,72.8L675.3,747L675.3,747z"/>
	<path class="st1" d="M671.4,734.4L616,678.9c-2.4-2.4-2.4-5.5,0-7.9c2.4-2.4,5.5-2.4,7.9,0l55.4,55.4c2.4,2.4,2.4,5.5,0,7.9
		C677.3,736.3,673.4,736.3,671.4,734.4z M772.3,633.4L716.9,578c-2.4-2.4-2.4-5.5,0-7.9c2.4-2.4,5.5-2.4,7.9,0l55.4,55.4
		c2.4,2.4,2.4,5.5,0,7.9C778.2,635.4,774.3,635.4,772.3,633.4z"/>
</g>
<rect x="226.7" y="714.7" class="st1" width="372.8" height="45.1"/>
<path class="st1" d="M988.7,61.1H765.8c-14.2,0-28.5-11.9-28.5-28.5c0-14.2,11.9-28.5,28.5-28.5h222.9c14.2,0,28.5,11.9,28.5,28.5
	S1005.3,61.1,988.7,61.1z"/>
<path class="st1" d="M962.6,255.6V32.7c0-14.2,11.9-28.5,28.5-28.5c14.2,0,28.5,11.9,28.5,28.5v222.9c0,14.2-11.9,28.5-28.5,28.5
	S962.6,272.2,962.6,255.6z M59.1,32.7v222.9c0,14.2-11.9,28.5-28.5,28.5c-14.2,0-28.5-11.9-28.5-28.5V32.7C2.2,18.4,14,4.2,30.6,4.2
	C47.2,6.6,59.1,18.4,59.1,32.7z"/>
<path class="st1" d="M253.6,61.1H30.6c-14.2,0-28.5-11.9-28.5-28.5C2.2,18.4,14,4.2,30.6,4.2h222.9c14.2,0,28.5,11.9,28.5,28.5
	S270.2,61.1,253.6,61.1z"/>
<path class="st1" d="M30.6,964.7h222.9c14.2,0,28.5,11.9,28.5,28.5c0,14.2-11.9,28.5-28.5,28.5H30.6c-14.2,0-28.5-11.9-28.5-28.5
	C2.2,978.9,16.4,964.7,30.6,964.7z"/>
<path class="st1" d="M59.1,770.2v222.9c0,14.2-11.9,28.5-28.5,28.5c-14.2,0-28.5-11.9-28.5-28.5V770.2c0-14.2,11.9-28.5,28.5-28.5
	C47.2,744.1,59.1,756,59.1,770.2z M962.6,993.1V770.2c0-14.2,11.9-28.5,28.5-28.5c14.2,0,28.5,11.9,28.5,28.5v222.9
	c0,14.2-11.9,28.5-28.5,28.5S962.6,1009.7,962.6,993.1z"/>
<path class="st1" d="M765.8,964.7h222.9c14.2,0,28.5,11.9,28.5,28.5c0,14.2-11.9,28.5-28.5,28.5H765.8c-14.2,0-28.5-11.9-28.5-28.5
	C739.7,978.9,751.6,964.7,765.8,964.7z"/>
<text transform="matrix(1 0 0 1 269.1006 907.6335)" class="st2 st3 st4">人工核查</text>
</svg>
