<?xml version="1.0" encoding="utf-8"?>
<!-- Generator: Adobe Illustrator 21.0.0, SVG Export Plug-In . SVG Version: 6.00 Build 0)  -->
<svg version="1.1" id="图层_1" xmlns="http://www.w3.org/2000/svg" xmlns:xlink="http://www.w3.org/1999/xlink" x="0px" y="0px"
	 viewBox="0 0 1024 1024" style="enable-background:new 0 0 1024 1024;" xml:space="preserve">
<style type="text/css">
	.st0{fill:#8BBFF2;}
	.st1{font-family:'MicrosoftYaHei';}
	.st2{font-size:113.9947px;}
	.st3{opacity:0.4;fill:url(#SVGID_1_);}
	.st4{fill:#50A0FF;}
</style>
<path class="st0" d="M509,741.8c172.7,0,312.3-139.6,312.3-312.3S681.7,117.2,509,117.2S196.7,256.8,196.7,429.5
	S336.3,741.8,509,741.8z M509,778.6c-191.1,0-349.1-158-349.1-349.1S317.9,80.4,509,80.4s349.1,158,349.1,349.1
	S700.1,778.6,509,778.6z"/>
<path class="st0" d="M509,631.6c110.2,0,202.1-91.9,202.1-202.1S619.2,227.4,509,227.4s-202.1,91.9-202.1,202.1
	S398.8,631.6,509,631.6z M509,668.3c-132.3,0-238.8-106.6-238.8-238.8S376.7,190.7,509,190.7s238.8,106.6,238.8,238.8
	S641.3,668.3,509,668.3z"/>
<path class="st0" d="M509,521.4c51.4,0,91.9-40.4,91.9-91.9s-40.4-91.9-91.9-91.9s-91.9,40.4-91.9,91.9S457.6,521.4,509,521.4z
	 M509,558.1c-69.8,0-128.6-58.8-128.6-128.6S439.2,300.9,509,300.9s128.6,58.8,128.6,128.6S578.8,558.1,509,558.1z"/>
<path class="st0" d="M989.7,62.1H766.8c-14.2,0-28.5-11.9-28.5-28.5c0-14.2,11.9-28.5,28.5-28.5h222.9c14.2,0,28.5,11.9,28.5,28.5
	S1006.3,62.1,989.7,62.1z"/>
<path class="st0" d="M963.6,256.6V33.7c0-14.2,11.9-28.5,28.5-28.5c14.2,0,28.5,11.9,28.5,28.5v222.9c0,14.2-11.9,28.5-28.5,28.5
	S963.6,273.2,963.6,256.6z"/>
<path class="st0" d="M60.1,33.7v222.9c0,14.2-11.9,28.5-28.5,28.5c-14.2,0-28.5-11.9-28.5-28.5V33.7C3.2,19.4,15,5.2,31.6,5.2
	C48.2,7.6,60.1,19.4,60.1,33.7z"/>
<path class="st0" d="M254.6,62.1H31.6c-14.2,0-28.5-11.9-28.5-28.5C3.2,19.4,15,5.2,31.6,5.2h222.9c14.2,0,28.5,11.9,28.5,28.5
	S271.2,62.1,254.6,62.1z"/>
<path class="st0" d="M31.6,965.7h222.9c14.2,0,28.5,11.9,28.5,28.5c0,14.2-11.9,28.5-28.5,28.5H31.6c-14.2,0-28.5-11.9-28.5-28.5
	C3.2,979.9,17.4,965.7,31.6,965.7z"/>
<path class="st0" d="M60.1,771.2v222.9c0,14.2-11.9,28.5-28.5,28.5c-14.2,0-28.5-11.9-28.5-28.5V771.2c0-14.2,11.9-28.5,28.5-28.5
	C48.2,745.1,60.1,757,60.1,771.2z M963.6,994.1V771.2c0-14.2,11.9-28.5,28.5-28.5c14.2,0,28.5,11.9,28.5,28.5v222.9
	c0,14.2-11.9,28.5-28.5,28.5S963.6,1010.7,963.6,994.1z"/>
<path class="st0" d="M766.8,965.7h222.9c14.2,0,28.5,11.9,28.5,28.5c0,14.2-11.9,28.5-28.5,28.5H766.8c-14.2,0-28.5-11.9-28.5-28.5
	C740.7,979.9,752.6,965.7,766.8,965.7z"/>
<text transform="matrix(1 0 0 1 284.1006 907.6335)" class="st0 st1 st2">智能核查</text>
<linearGradient id="SVGID_1_" gradientUnits="userSpaceOnUse" x1="513" y1="268.0168" x2="859.7081" y2="268.0168">
	<stop  offset="0" style="stop-color:#50A0FF"/>
	<stop  offset="1" style="stop-color:#FFFFFF;stop-opacity:0"/>
</linearGradient>
<path class="st3" d="M515,85.5c191.1,0,350,172.4,344.6,365.1L513,449.9L515,85.5z"/>
<path class="st4" d="M542.1,117.2c11,0,18.4-7.3,18.4-14.7c0-11-7.3-18.4-14.7-18.4h-73.5c-11,0-18.4,11-14.7,18.4
	c0,11,11,18.4,18.4,14.7h14.7v73.5h-7.3c-11,0-18.4,11-14.7,18.4c3.7,7.3,7.3,22,18.4,18.4h3.7v202.1c0,11,7.3,18.4,18.4,18.4
	s18.4-7.3,18.4-18.4V227.4h3.7c11,0,18.4-7.3,18.4-14.7s-3.7-18.4-14.7-22h-7.3v-73.5C527.4,117.2,542.1,117.2,542.1,117.2z"/>
</svg>
